# xmcd CD database file
# Copyright (C) 1997 Ti Kan
# 
# Track frame offsets:
#     150
#     14613
#     28103
#     42748
#     56713
#     69680
#     83393
#     96023
#     109288
#     120133
#     133803
#     146010
#     159393
#     172590
#     185735
#     200533
#     218658
#     237733
# 
# Disc length: 3372 seconds
# 
# Revision: 1
# Processed by: cddbd v1.4b41PL1 Copyright (c) Steve Scherf et al.
# Submitted via: DiscPlay 4.0.2
# 
DISCID=020d2a12
DTITLE=B.J. Thomas - Greatest Hits
DYEAR=1900
DGENRE=
TTITLE0=I'm So Lonesome I Could Cry
TTITLE1=Mama
TTITLE2=Billy and Sue
TTITLE3=Bring Back the Time
TTITLE4=I Can't Help It (If I'm Still In Love With You)
TTITLE5=The Eyes of a New York Woman
TTITLE6=Hooked on a Feeling
TTITLE7=It's Only Love
TTITLE8=Pass the Apple Eve
TTITLE9=Raindrops Keep Fallin' on my Head
TTITLE10=Everybody's Out of Town
TTITLE11=I Just Can't Help Believing
TTITLE12=Most of All
TTITLE13=No Love at All
TTITLE14=Mighty Clouds of Joy
TTITLE15=Long Ago Tomorrow
TTITLE16=Rock and Roll Lullaby
TTITLE17=(Hey Won't You Play) Another Somebody Done Somebody Wrong Song
EXTD=
EXTT0=
EXTT1=
EXTT2=
EXTT3=
EXTT4=
EXTT5=
EXTT6=
EXTT7=
EXTT8=
EXTT9=
EXTT10=
EXTT11=
EXTT12=
EXTT13=
EXTT14=
EXTT15=
EXTT16=
EXTT17=
PLAYORDER=
